# xmcd
#
# Track frame offsets: 
#        150
#        13767
#        29240
#        47040
#        63505
#        83440
#        96267
#        116695
#        130105
#        146007
#        165412
#
# Disc length: 2478 seconds
#
# Revision: 3
# Processed by: cddbd v1.5.2PL0 Copyright (c) Steve Scherf et al.
# Submitted via: ExactAudioCopy v1.0b3
#
DISCID=9209ac0b
DTITLE=Gary Allan - See If I Care
DYEAR=2003
DGENRE=Country
TTITLE0=Drinkin' Dark Whiskey
TTITLE1=Can't Do It Today
TTITLE2=Tough Little Boys
TTITLE3=See If I Care
TTITLE4=Songs About Rain
TTITLE5=I Can Love You
TTITLE6=Don't Look Away
TTITLE7=Guys Like Me
TTITLE8=Nothing On But The Radio
TTITLE9=You Don't Know A Thing About Me
TTITLE10=A Showman's Life
EXTD=
EXTT0=
EXTT1=
EXTT2=
EXTT3=
EXTT4=
EXTT5=
EXTT6=
EXTT7=
EXTT8=
EXTT9=
EXTT10=
PLAYORDER=
